<svg width="512" height="512" viewBox="0 0 512 512" fill="none" xmlns="http://www.w3.org/2000/svg">
  <rect x="24" y="24" width="464" height="464" rx="112" fill="#020817"/>
  <rect x="32" y="32" width="448" height="448" rx="104" stroke="rgba(148,163,184,0.22)" stroke-width="12"/>
  <path
    d="M98 308C133 308 154 264 191 264H242C282 264 307 219 348 219H414"
    stroke="#3B82F6"
    stroke-width="28"
    stroke-linecap="round"
    stroke-linejoin="round"
  />
  <path
    d="M178 150L250 94L324 150L250 224L178 150Z"
    fill="#F8FAFC"
  />
  <path
    d="M226 118L250 102L286 126L250 162L214 126L226 118Z"
    fill="#020817"
    fill-opacity="0.12"
  />
  <path
    d="M315 331L374 271C385 260 403 260 414 271C425 282 425 300 414 311L355 370L309 378L315 331Z"
    fill="#E5E7EB"
  />
  <path
    d="M321 366L366 321"
    stroke="#0F172A"
    stroke-width="12"
    stroke-linecap="round"
  />
  <path
    d="M299 388L355 370L315 331L299 388Z"
    fill="#8B5CF6"
  />
</svg>
